<svg version="1.0" xmlns="http://www.w3.org/2000/svg" width="152" height="56" viewBox="0 0 344 131">
  <g fill="#2563eb">
    <path d="M48 4.8c-3.2 2.6-3 7 .4 9.9 1.5 1.3 3.3 2.3 3.9 2.3 1.8 0 48.2 46.8 47.4 47.7-.4.4-5.1 5.2-10.4 10.5l-9.7 9.7 2.4 2.5c1.3 1.5 2.8 2.6 3.5 2.6.6 0 6.8-5.8 13.7-12.9l12.7-12.8-26.5-26.4C64.3 16.8 59 11 59 8.9c0-5.3-6.5-7.7-11-4.1m7.4 3.4c.8 1.4.7 2.1-.6 3.4-3 3-7.5-.9-4.8-4.2 1.6-1.8 3.9-1.5 5.4.8"/>
    <path d="M37 22.5 32.6 27l11.9 12c6.5 6.5 12.3 11.6 12.9 11.3s.7-.2.3.2c-.4.5 2.1 3.7 5.5 7.2l6.2 6.3-6.9 7.1c-3.9 3.8-12.3 12.2-18.7 18.6l-11.7 11.6 4.7 4.3c2.6 2.4 4.9 4.4 5.2 4.4s10.9-10.4 23.5-23l23-23-23.2-23C52.6 28.3 42 18 41.8 18s-2.4 2-4.8 4.5"/>
    <path d="M18.9 30.3c-.9.7-2 2.7-2.3 4.4-.6 2.7-.3 3.7 1.8 5.8 1.4 1.4 3.3 2.5 4.3 2.5s5.6 3.8 10.3 8.5c7.5 7.5 8.2 8.5 6 8.6-14.1.4-22.2-.1-24.2-1.5C9.7 55 4 57.9 4 64c0 6 5.9 9.1 10.6 5.5 1.4-1.1 5-1.4 14.2-1.5 6.7 0 12.2.3 12.2.8C41 70.5 24.3 86 22.5 86c-5.1.1-8 7.3-4.6 11.4 3 3.6 12.1.8 12.1-3.7 0-1.5 4.5-6.7 13.8-16l13.7-13.8-13.7-13.5C35 41.8 30 36.1 30 34.8c0-4.5-7.3-7.4-11.1-4.5m5.9 2.9c2.8 2.8.3 6.6-3.3 5.2-2.5-1-1.2-6.4 1.5-6.4.3 0 1.1.5 1.8 1.2m-11.7 29c.4 3.8-1.3 6.1-3.7 5.1-1.6-.6-2.5-2.9-1.8-4.8.7-1.8 5.4-2 5.5-.3M25.5 93c0 2-.5 2.5-2.5 2.5s-2.6-.6-2.8-2.8c-.3-2.6-.1-2.8 2.5-2.5 2.2.2 2.8.8 2.8 2.8M135 64.1c0 10 .2 11 1.8 10.7 1.1-.2 1.8-1.4 2-3.6.5-4.6 4.3-4.5 7.4.3 1.5 2.3 3.1 3.5 4.6 3.5 2.7 0 2.7-.8.2-4-2.5-3.1-2.5-3.5 0-6 2.2-2.2 2.6-5.1 1-8-1.2-2.2-6.8-4-12.7-4H135zm11.4-6.5c.9.3 1.6 1.6 1.6 2.9 0 2.5-1.7 3.5-6.1 3.5-2.7 0-2.9-.3-2.9-3.5s.2-3.5 2.9-3.5c1.6 0 3.6.3 4.5.6m62.6-1.3c0 3.2-.1 3.2-4 2.9-8.5-.8-12 9.2-5.1 14.5 2 1.5 6.3 1.7 7.8.2.8-.8 1.7-.8 3.1 0 1 .6 2.2.7 2.6.4.3-.3.6-5.3.6-11V53h-2.5c-2.2 0-2.5.4-2.5 3.3m-2.1 6.7c2.8 1.4 3.4 4 1.5 6.1-2 2.2-4.5 2.4-6.2.7-1.8-1.8-1.5-5.5.6-6.7 2.1-1.3 2-1.3 4.1-.1M337 56.9c0 4-1.3 6.1-2.5 4.1-.3-.5-1-1-1.5-1s.2 1.1 1.6 2.6c1.9 1.8 2.4 3.1 2 4.9-.3 1.3-.2 3.4.3 4.7.7 1.6 1-.7 1-8.5.1-5.9-.1-10.7-.4-10.7s-.5 1.8-.5 3.9M254 64v10h5.8c3.6 0 6.6-.6 8-1.6 2.8-1.9 2.9-6 .1-7.4-1.9-1.1-1.9-1.3-.5-2.9 3.9-4.3.1-8.1-8.1-8.1H254zm10.5-8c3.3 1.3 3.1 4.9-.4 6.7l-2.5 1.2 2.5.6c1.4.3 3 1.5 3.7 2.6 2 3.1-1.6 5.9-7.8 5.9h-4.9V55h3.4c1.8 0 4.6.5 6 1m-102.2 2.8c-3 .4-6.3 4.8-6.3 8.3 0 5.3 6.4 9.2 11.9 7.3 4.4-1.6 3.3-3.9-1.8-3.9-2.6 0-4.6-.5-4.8-1.3-.4-.9 1.2-1.2 5.7-1.2h6.2l-.7-2.8c-1.2-5.1-4.7-7.2-10.2-6.4m5.5 4.9c.2.9-.8 1.3-3.2 1.3-3.4 0-4.4-.8-2.9-2.4 1.1-1.1 5.6-.2 6.1 1.1m16.9-5c-.4.3-2.3.6-4.2.5l-3.5-.1v8c0 7.1.2 8 1.8 7.7 1.3-.2 1.8-1.5 2-5.5.3-5.9 2-8 5.1-6.4 1.5.9 2.1 2.3 2.3 6.3.2 4.1.7 5.4 2.1 5.6 1.5.3 1.7-.5 1.7-6.6 0-4.4-.5-7.3-1.2-8-1.9-1.4-5.3-2.3-6.1-1.5m38.2.5c-7.2 2.7-6.1 13.5 1.6 15.4 3 .7 8.7-1.4 8.2-3-.2-.6-2.1-1-4.4-.8-2.7.2-4.4-.2-5.2-1.2-1.2-1.4-.7-1.6 4.8-1.6 5.7 0 6.1-.2 6.1-2.3 0-5.2-5.6-8.5-11.1-6.5m5.5 3.4c3 1.1 1.6 2.4-2.5 2.4-3.6 0-4-.2-2.9-1.5 1.3-1.6 2.9-1.9 5.4-.9m18.3-3.9c-.4.3-2.5.6-4.7.5l-4-.2v7.4c0 5.3.4 7.5 1.3 7.9 2.5.9 3.6-.8 3.9-5.8.3-4.3.6-5 2.6-5.3 1.6-.3 2.2-1 2.2-2.8 0-2.5-.2-2.8-1.3-1.7m31.6 1.3c-2.4 1-4.3 3.9-4.3 6.8 0 2.5 3.7 7.2 5.7 7.2 1.1 0 .7-.7-1.1-2.1-3.4-2.7-3.6-8.1-.4-10.3 3.1-2.2 5.1-2 7.6.7 3.5 3.7 2.6 7.9-2.3 10.5-1.6.9-1.7 1.1-.4 1.2.9 0 2.7-.8 3.9-1.8 3.3-2.6 3-8-.5-11-2.8-2.3-4.6-2.6-8.2-1.2m18.5-.3c-1 .2-1.8.9-1.8 1.4 0 .6.7.6 1.8.1.9-.5 2.4-1.2 3.2-1.5 1.3-.5 1.3-.5 0-.5-.8 0-2.3.2-3.2.5m16.4 6.8c0 7.6.1 7.8.8 2.7.8-5.5 2.3-8.2 4.6-8.2.8 0 1.4-.5 1.4-1 0-1.4-1.2-1.2-3.7.5-2 1.4-2.2 1.3-2.6-.2-.3-1-.5 1.8-.5 6.2m13.8-6.2c-1.4.7-2.8 2.6-3.4 4.5-.7 2.7-.6 3.8 1.1 6 2.3 3.2 6.9 4 9.8 1.8 1.1-.9 1.5-1.6.8-1.6-.6 0-1.5.4-1.8 1-1 1.6-5.1 1.1-6.8-.8-2.5-2.8-2.1-6.7 1-9.1 3.1-2.5 2.7-3.5-.7-1.8m-23.5 2c1.9 2.9 1.2 3.7-3.6 3.7-2.8 0-4.2.6-5.3 2.2-1.4 2-1.4 2.4.1 4 1 1.1 2.8 1.7 4.7 1.6l3.1-.1-3.2-.4c-6.1-.8-4.9-6.3 1.4-6.3 3.3 0 3.5.2 3.1 2.9-.2 1.7-.1 2.8.3 2.5.4-.2 1 .2 1.2.8.3.7.6-1.4.6-4.8.1-3.4-.4-6.5-1.1-7.2-2.1-2.1-2.9-1.3-1.3 1.1M62.6 101.9c-6 6-11.9 11.2-13.1 11.5-3.4.9-4.8 5.1-3 8.6 3.1 6 11.7 4.7 12.3-1.8.3-2.6 2.4-5.3 10.4-13.3l10.1-10.1-2.9-2.9-2.9-2.9zM55 117.5c.7.8 1 2.2.6 3-.7 2-5.5 2-6.2 0-.7-1.7 1.2-4.5 3.1-4.5.7 0 1.8.7 2.5 1.5"/>
  </g>
</svg>
